<?xml version="1.0" encoding="utf-8"?>
<!-- Generator: Adobe Illustrator 24.2.0, SVG Export Plug-In . SVG Version: 6.00 Build 0)  -->
<svg version="1.1" id="Layer_1" xmlns="http://www.w3.org/2000/svg" xmlns:xlink="http://www.w3.org/1999/xlink" x="0px" y="0px"
	 viewBox="0 0 623.6 510.2" style="enable-background:new 0 0 623.6 510.2;" xml:space="preserve">
<style type="text/css">
	.st0{fill:#FFF200;}
	.st1{fill:#FFF200;stroke:#ED1C24;stroke-width:2.8506;stroke-linecap:round;stroke-miterlimit:10;}
	.st2{fill:#FFF200;stroke:#ED1C24;stroke-width:0.9754;stroke-linecap:round;stroke-miterlimit:10;}
	.st3{fill:#FFF200;stroke:#ED1C24;stroke-width:2.7647;stroke-miterlimit:10;}
	.st4{fill:#0B9446;stroke:#ED1C24;stroke-width:2.7647;stroke-miterlimit:10;}
	.st5{fill:none;stroke:#00AEEF;stroke-width:0.1446;stroke-miterlimit:10;}
	.st6{fill:#ED1C24;}
	.st7{clip-path:url(#SVGID_2_);}
	.st8{fill:#981B1E;}
	.st9{fill:#FFF200;stroke:#981B1E;stroke-width:0.6967;stroke-miterlimit:10;}
	.st10{fill:#FFF200;stroke:#ED1C24;stroke-width:2.9471;stroke-linecap:round;stroke-miterlimit:10;}
	.st11{fill:#FFF200;stroke:#ED1C24;stroke-width:1.0085;stroke-linecap:round;stroke-miterlimit:10;}
	.st12{fill:#FFF200;stroke:#ED1C24;stroke-width:2.787;stroke-linecap:round;stroke-miterlimit:10;}
	.st13{fill:none;stroke:#ED1C24;stroke-width:2.787;stroke-linecap:round;stroke-miterlimit:10;}
	.st14{fill:none;stroke:#ED1C24;stroke-width:2.8506;stroke-linecap:round;stroke-miterlimit:10;}
	.st15{fill:none;stroke:#ED1C24;stroke-width:3.0657;stroke-linecap:round;stroke-miterlimit:10;}
	.st16{fill:none;stroke:#ED1C24;stroke-width:3.6231;stroke-linecap:round;stroke-miterlimit:10;}
	.st17{fill:none;stroke:#ED1C24;stroke-width:3.3444;stroke-linecap:round;stroke-miterlimit:10;}
	.st18{fill:#FFF200;stroke:#ED1C24;stroke-width:3.0657;stroke-linecap:round;stroke-miterlimit:10;}
	.st19{fill:none;stroke:#ED1C24;stroke-width:1.3935;stroke-linecap:round;stroke-miterlimit:10;}
	.st20{fill:none;stroke:#ED1C24;stroke-width:1.6722;stroke-linecap:round;stroke-miterlimit:10;}
	.st21{fill:none;stroke:#ED1C24;stroke-width:2.2296;stroke-linecap:round;stroke-miterlimit:10;}
	.st22{fill:none;stroke:#ED1C24;stroke-width:1.9509;stroke-linecap:round;stroke-miterlimit:10;}
	.st23{fill:#FFF200;stroke:#ED1C24;stroke-width:1.3935;stroke-linecap:round;stroke-miterlimit:10;}
	.st24{fill:none;stroke:#ED1C24;stroke-width:0.9832;stroke-linecap:round;stroke-miterlimit:10;}
	.st25{clip-path:url(#SVGID_4_);fill:#FFF200;stroke:#ED1C24;stroke-width:2.0902;stroke-miterlimit:10;}
	.st26{fill:none;stroke:#ED1C24;stroke-width:2.7647;stroke-miterlimit:10;}
	.st27{fill:#FFF200;stroke:#ED1C24;stroke-width:2.0902;stroke-miterlimit:10;}
	.st28{fill:none;stroke:#ED1C24;stroke-width:2.0902;stroke-linecap:round;stroke-miterlimit:10;}
	.st29{fill:#FFF200;stroke:#ED1C24;stroke-width:1.6722;stroke-linecap:round;stroke-miterlimit:10;}
</style>
<g>
	<circle class="st0" cx="311.8" cy="239.4" r="181.9"/>
	<g>
		<path class="st1" d="M562.5,133.7c-3.2,5-15.1,24.2-14.2,29.9c0,0-10.9-16.9-10.9-34.2s14.6-16.5,14.6-16.5s16.9,1,11.8,18
			C563.5,131.8,563,132.8,562.5,133.7z"/>
		<circle class="st2" cx="551.1" cy="126.4" r="12.7"/>
	</g>
	<g>
		<path class="st1" d="M61.2,133.7c3.2,5,15.1,24.2,14.2,29.9c0,0,10.9-16.9,10.9-34.2s-14.6-16.5-14.6-16.5s-16.9,1-11.8,18
			C60.1,131.8,60.6,132.8,61.2,133.7z"/>
		<circle class="st2" cx="72.6" cy="126.4" r="12.7"/>
	</g>
	<circle class="st3" cx="311.8" cy="226.6" r="181.9"/>
	<circle class="st4" cx="311.8" cy="226.6" r="171.8"/>
	<circle class="st3" cx="311.8" cy="226.6" r="94.7"/>
	<circle class="st5" cx="311.8" cy="226.6" r="85.7"/>
	<g>
		<circle class="st6" cx="311.8" cy="226.6" r="85.7"/>
		<g>
			<defs>
				<circle id="SVGID_1_" cx="311.8" cy="226.6" r="85.7"/>
			</defs>
			<clipPath id="SVGID_2_">
				<use xlink:href="#SVGID_1_"  style="overflow:visible;"/>
			</clipPath>
			<g class="st7">
				<polygon class="st8" points="311.8,226.6 309.5,319.4 314.1,319.4 				"/>
				<polygon class="st8" points="311.8,226.6 325.7,318.3 330.2,317.6 				"/>
				<polygon class="st8" points="311.8,226.6 341.4,314.5 345.7,313 				"/>
				<polygon class="st8" points="311.8,226.6 356.2,308.1 360.2,305.8 				"/>
				<polygon class="st8" points="311.8,226.6 369.7,299.1 373.2,296.2 				"/>
				<polygon class="st8" points="311.8,226.6 381.4,288 384.4,284.5 				"/>
				<polygon class="st8" points="311.8,226.6 391,274.9 393.3,271 				"/>
				<polygon class="st8" points="311.8,226.6 398.2,260.5 399.8,256.2 				"/>
				<polygon class="st8" points="311.8,226.6 402.8,244.9 403.6,240.4 				"/>
				<polygon class="st8" points="311.8,226.6 404.6,228.9 404.6,224.3 				"/>
				<polygon class="st8" points="311.8,226.6 403.6,212.7 402.8,208.2 				"/>
				<polygon class="st8" points="311.8,226.6 399.8,197 398.2,192.7 				"/>
				<polygon class="st8" points="311.8,226.6 393.3,182.2 391,178.2 				"/>
				<polygon class="st8" points="311.8,226.6 384.4,168.7 381.4,165.2 				"/>
				<polygon class="st8" points="311.8,226.6 373.2,157 369.7,154 				"/>
				<polygon class="st8" points="311.8,226.6 360.2,147.4 356.2,145.1 				"/>
				<polygon class="st8" points="311.8,226.6 345.7,140.2 341.4,138.6 				"/>
				<polygon class="st8" points="311.8,226.6 330.2,135.6 325.7,134.8 				"/>
				<polygon class="st8" points="311.8,226.6 314.1,133.8 309.5,133.8 				"/>
				<polygon class="st8" points="311.8,226.6 297.9,134.8 293.4,135.6 				"/>
				<polygon class="st8" points="311.8,226.6 282.2,138.6 277.9,140.2 				"/>
				<polygon class="st8" points="311.8,226.6 267.4,145.1 263.4,147.4 				"/>
				<polygon class="st8" points="311.8,226.6 253.9,154 250.4,157 				"/>
				<polygon class="st8" points="311.8,226.6 242.2,165.2 239.3,168.7 				"/>
				<polygon class="st8" points="311.8,226.6 232.6,178.2 230.3,182.2 				"/>
				<polygon class="st8" points="311.8,226.6 225.4,192.7 223.8,197 				"/>
				<polygon class="st8" points="311.8,226.6 220.8,208.2 220,212.7 				"/>
				<polygon class="st8" points="311.8,226.6 219,224.3 219,228.9 				"/>
				<polygon class="st8" points="311.8,226.6 220,240.4 220.8,244.9 				"/>
				<polygon class="st8" points="311.8,226.6 223.8,256.2 225.4,260.5 				"/>
				<polygon class="st8" points="311.8,226.6 230.3,271 232.6,274.9 				"/>
				<polygon class="st8" points="311.8,226.6 239.3,284.5 242.2,288 				"/>
				<polygon class="st8" points="311.8,226.6 250.4,296.2 253.9,299.1 				"/>
				<polygon class="st8" points="311.8,226.6 263.4,305.8 267.4,308.1 				"/>
				<polygon class="st8" points="311.8,226.6 277.9,313 282.2,314.5 				"/>
				<polygon class="st8" points="311.8,226.6 293.4,317.6 297.9,318.3 				"/>
				<polygon class="st8" points="311.8,226.6 309.5,319.4 314.1,319.4 				"/>
			</g>
		</g>
	</g>
	<g>
		<polygon class="st9" points="311.8,172.8 326.4,210.9 364.4,210.9 334.1,237.9 349.8,277.6 311.8,254.2 273.8,277.6 289.5,237.9 
			259.2,210.9 297.2,210.9 		"/>
		<g>
			<rect x="311.3" y="173.7" class="st8" width="1" height="80.7"/>
			
				<rect x="305.5" y="201.8" transform="matrix(0.7977 -0.603 0.603 0.7977 -65.7155 227.2585)" class="st8" width="0.9" height="19.6"/>
			<g>
				<polygon class="st8" points="349.7,276.9 349,277.4 296.9,210.9 297.6,210.4 				"/>
				<rect x="316.2" y="235.5" class="st8" width="0.9" height="21.7"/>
				<rect x="321" y="241.5" class="st8" width="0.9" height="18.6"/>
				<rect x="325.2" y="246.7" class="st8" width="0.9" height="16"/>
				<rect x="329.3" y="252" class="st8" width="0.9" height="13.2"/>
				<rect x="333.2" y="257" class="st8" width="0.9" height="10.7"/>
				<rect x="337.1" y="262.1" class="st8" width="0.9" height="8"/>
				<rect x="340.9" y="266.8" class="st8" width="0.9" height="5.5"/>
			</g>
			<g>
				<polygon class="st8" points="274,276.8 274.7,277.3 326.9,210.8 326.2,210.3 				"/>
				
					<rect x="306.6" y="235.4" transform="matrix(-1 -5.630664e-11 5.630664e-11 -1 614.1288 492.4696)" class="st8" width="0.9" height="21.7"/>
				
					<rect x="301.9" y="241.4" transform="matrix(-1 -5.422119e-11 5.422119e-11 -1 604.6656 501.3694)" class="st8" width="0.9" height="18.6"/>
				
					<rect x="297.7" y="246.6" transform="matrix(-1 -4.170854e-11 4.170854e-11 -1 596.2925 509.2771)" class="st8" width="0.9" height="16"/>
				
					<rect x="293.6" y="252" transform="matrix(-1 -3.962309e-11 3.962309e-11 -1 588.0743 517.06)" class="st8" width="0.9" height="13.2"/>
				
					<rect x="289.7" y="256.9" transform="matrix(-1 -4.170854e-11 4.170854e-11 -1 580.2906 524.4749)" class="st8" width="0.9" height="10.7"/>
				
					<rect x="285.8" y="262" transform="matrix(-1 -5.630664e-11 5.630664e-11 -1 572.4252 532.0024)" class="st8" width="0.9" height="8"/>
				
					<rect x="282" y="266.7" transform="matrix(-1 -4.170854e-11 4.170854e-11 -1 564.9078 538.9974)" class="st8" width="0.9" height="5.5"/>
			</g>
			
				<rect x="306.5" y="196.7" transform="matrix(0.7977 -0.603 0.603 0.7977 -61.444 226.5126)" class="st8" width="0.9" height="16.2"/>
			
				<rect x="307.3" y="192.6" transform="matrix(0.7977 -0.603 0.603 0.7977 -57.9055 225.8942)" class="st8" width="0.9" height="13.4"/>
			
				<rect x="308.2" y="188.2" transform="matrix(0.7977 -0.603 0.603 0.7977 -54.2183 225.2504)" class="st8" width="0.9" height="10.5"/>
			<g>
				<polygon class="st8" points="334.4,237.4 334.1,238.4 259.7,211.6 260.1,210.7 				"/>
				
					<rect x="292.9" y="220.4" transform="matrix(-0.3816 -0.9243 0.9243 -0.3816 192.7825 588.7598)" class="st8" width="0.9" height="19"/>
				
					<rect x="287.2" y="218.9" transform="matrix(-0.3816 -0.9243 0.9243 -0.3816 187.8408 579.1028)" class="st8" width="0.9" height="15.7"/>
				
					<rect x="282.1" y="217.3" transform="matrix(-0.3816 -0.9243 0.9243 -0.3816 183.5116 570.412)" class="st8" width="0.9" height="13"/>
				
					<rect x="277.9" y="216.2" transform="matrix(-0.3816 -0.9243 0.9243 -0.3816 179.7997 563.2869)" class="st8" width="0.9" height="10.5"/>
				
					<rect x="273.8" y="215" transform="matrix(-0.3816 -0.9243 0.9243 -0.3816 176.2828 556.4003)" class="st8" width="0.9" height="8.4"/>
				
					<rect x="269.6" y="213.9" transform="matrix(-0.3816 -0.9243 0.9243 -0.3816 172.6215 549.3971)" class="st8" width="0.9" height="6.1"/>
			</g>
			<g>
				<polygon class="st8" points="289.2,237.4 289.5,238.4 363.9,211.6 363.5,210.7 				"/>
				
					<rect x="329.8" y="220.4" transform="matrix(0.3816 -0.9243 0.9243 0.3816 -8.2621 447.4402)" class="st8" width="0.9" height="19"/>
				
					<rect x="335.5" y="218.9" transform="matrix(0.3816 -0.9243 0.9243 0.3816 -1.8017 450.7461)" class="st8" width="0.9" height="15.7"/>
				
					<rect x="340.6" y="217.3" transform="matrix(0.3816 -0.9243 0.9243 0.3816 4.0124 453.6423)" class="st8" width="0.9" height="13"/>
				
					<rect x="344.9" y="216.2" transform="matrix(0.3816 -0.9243 0.9243 0.3816 8.779 456.1256)" class="st8" width="0.9" height="10.5"/>
				
					<rect x="348.9" y="215" transform="matrix(0.3816 -0.9243 0.9243 0.3816 13.3861 458.4783)" class="st8" width="0.9" height="8.4"/>
				
					<rect x="353.1" y="213.9" transform="matrix(0.3816 -0.9243 0.9243 0.3816 18.0712 460.9277)" class="st8" width="0.9" height="6.1"/>
			</g>
		</g>
	</g>
	<g>
		<path class="st10" d="M63,376.3c5.7,2.2,27.3,10.9,30.1,16.2c0,0-1.3-20.7-11.9-35.2S59,352.5,59,352.5s-13.5,11.2,1.1,22.3
			C61,375.4,62,375.9,63,376.3z"/>
		<circle class="st11" cx="68.1" cy="363.3" r="13.1"/>
	</g>
	<g>
		<path class="st10" d="M46.1,325.1c6.1,0.3,29.4,1.9,33.7,6c0,0-7.7-19.3-22.2-29.7c-14.6-10.4-22.6,2.3-22.6,2.3s-9.3,14.8,8,20.8
			C43.9,324.9,45,325.1,46.1,325.1z"/>
		<circle class="st11" cx="46.8" cy="311.1" r="13.1"/>
	</g>
	<path class="st12" d="M215.8,21.6c0,0-43.3,1.6-80,41.3s-22.3,70.2-21,78.8c0,0,37.6-1.4,70.9-41.1S215.8,21.6,215.8,21.6z"/>
	<path class="st13" d="M176.5,62.4c0,0-41,18.7-37.8,50.7C138.7,113,174.4,101.1,176.5,62.4z"/>
	<line class="st13" x1="205.9" y1="31.7" x2="189.2" y2="49.4"/>
	<line class="st13" x1="181" y1="41.6" x2="174.3" y2="55.4"/>
	<line class="st13" x1="168.9" y1="47.8" x2="161.8" y2="63.3"/>
	<line class="st13" x1="155.4" y1="59.2" x2="148.6" y2="75.4"/>
	<line class="st13" x1="137" y1="76.2" x2="137" y2="92.6"/>
	<line class="st13" x1="126.4" y1="85.8" x2="126.4" y2="102"/>
	<line class="st13" x1="184.5" y1="61.1" x2="202.2" y2="57.2"/>
	<line class="st13" x1="184.5" y1="69.9" x2="198.4" y2="66.5"/>
	<line class="st13" x1="177.6" y1="79.6" x2="193.1" y2="78.7"/>
	<line class="st13" x1="171.6" y1="89" x2="187" y2="89"/>
	<line class="st13" x1="165.8" y1="97.4" x2="181.8" y2="97.4"/>
	<line class="st13" x1="161.8" y1="106.2" x2="173.7" y2="106.2"/>
	<line class="st13" x1="153.2" y1="114.7" x2="166.3" y2="114.7"/>
	<path class="st1" d="M136.8,101.5c0,0-40,19-58.5,71.1s7.3,74.9,12.1,82.5c0,0,34.8-16.5,50.1-67.2S136.8,101.5,136.8,101.5z"/>
	<path class="st14" d="M116.3,155.7c0,0-31,34.1-15.1,62.8C101.2,218.5,129.9,192.9,116.3,155.7z"/>
	<line class="st14" x1="131.6" y1="115" x2="123" y2="138.3"/>
	<line class="st14" x1="112.1" y1="134.4" x2="111.5" y2="150"/>
	<line class="st14" x1="103.3" y1="145" x2="102.8" y2="162.4"/>
	<line class="st14" x1="95.2" y1="161.2" x2="95.4" y2="179.2"/>
	<line class="st14" x1="84.7" y1="184.6" x2="91.3" y2="200.1"/>
	<line class="st14" x1="78.6" y1="197.9" x2="85.2" y2="213.1"/>
	<line class="st14" x1="123.3" y1="151.2" x2="138.4" y2="140.4"/>
	<line class="st14" x1="126.9" y1="159.5" x2="138.6" y2="150.7"/>
	<line class="st14" x1="124.3" y1="171.4" x2="138.5" y2="164.4"/>
	<line class="st14" x1="122.4" y1="182.6" x2="136.9" y2="176.4"/>
	<line class="st14" x1="120.4" y1="192.9" x2="135.4" y2="186.4"/>
	<line class="st14" x1="120.1" y1="202.7" x2="131.4" y2="197.9"/>
	<line class="st14" x1="115.5" y1="214.2" x2="127.8" y2="208.9"/>
	<path class="st1" d="M51.4,142.2c0,0-23.8,37.4-11.8,91.3s46,59.6,54.1,63.5c0,0,20.7-32.5,6.7-83.6S51.4,142.2,51.4,142.2z"/>
	<path class="st14" d="M62.8,199.1c0,0-8.1,45.4,20.6,61.3C83.4,260.3,94.1,223.4,62.8,199.1z"/>
	<line class="st14" x1="54.1" y1="156.5" x2="59.3" y2="180.8"/>
	<line class="st14" x1="48" y1="183.2" x2="55.7" y2="196.8"/>
	<line class="st14" x1="46.1" y1="197" x2="55" y2="212"/>
	<line class="st14" x1="47.9" y1="215" x2="57.6" y2="230.1"/>
	<line class="st14" x1="51.4" y1="240.4" x2="65.2" y2="249.9"/>
	<line class="st14" x1="53.4" y1="254.9" x2="66.9" y2="264.3"/>
	<line class="st14" x1="66.4" y1="191.5" x2="73.4" y2="174.4"/>
	<line class="st14" x1="73.8" y1="196.7" x2="79" y2="183"/>
	<line class="st14" x1="78" y1="208.1" x2="86.2" y2="194.6"/>
	<line class="st14" x1="82.3" y1="218.6" x2="91.3" y2="205.7"/>
	<line class="st14" x1="86" y1="228.4" x2="95.3" y2="214.9"/>
	<line class="st14" x1="91.1" y1="236.9" x2="98" y2="226.9"/>
	<line class="st14" x1="93.2" y1="249.1" x2="100.9" y2="238"/>
	<path class="st1" d="M123,212c0,0-6,113.4,84.7,200.3l-11.5,36.2c0,0-103-59.5-126.3-136.1C48,240.3,86,215.4,123,212z"/>
	<path class="st6" d="M115.5,297.9c0,0-3.2,53.4,62.8,125.2l4.1-4.3C182.4,418.8,118.4,336.9,115.5,297.9z"/>
	<path class="st6" d="M97.9,280.3c0,0-3.7,60.7,54.5,131.7l4.1-4.3C156.5,407.7,116.7,361.6,97.9,280.3z"/>
	<line class="st14" x1="176" y1="384.2" x2="176.6" y2="397.8"/>
	<line class="st14" x1="168.5" y1="391" x2="169.9" y2="395.3"/>
	<line class="st14" x1="167.2" y1="381.1" x2="167.9" y2="386.5"/>
	<line class="st14" x1="165.6" y1="367.4" x2="166.4" y2="375.3"/>
	<line class="st14" x1="157.8" y1="367.4" x2="158.5" y2="386.5"/>
	<line class="st14" x1="150.6" y1="349.9" x2="150.6" y2="366"/>
	<line class="st14" x1="141.1" y1="326" x2="137.9" y2="343.2"/>
	<line class="st14" x1="128.7" y1="290.8" x2="124.4" y2="310.3"/>
	<line class="st14" x1="126.5" y1="281.5" x2="119" y2="299.8"/>
	<line class="st14" x1="119" y1="260.3" x2="111.1" y2="279"/>
	<line class="st14" x1="86.8" y1="232.9" x2="93.2" y2="259.1"/>
	<line class="st14" x1="81.9" y1="250.2" x2="90" y2="265.9"/>
	<line class="st14" x1="68.3" y1="269.5" x2="89" y2="293.5"/>
	<line class="st14" x1="69.3" y1="281.5" x2="89" y2="303.2"/>
	<path class="st14" d="M70.7,296.1c0,0,11.5,13,19.3,16.2"/>
	<path class="st14" d="M71.7,308.8c0,0,11.6,10.3,21.5,14.4"/>
	<path class="st14" d="M80.3,325.4c0,0,3.6,6.1,21.3,14.2"/>
	<path class="st14" d="M83.9,337c0,0,8.3,9.3,21.3,12.9"/>
	<path class="st14" d="M92.1,352.1c0,0,10.9,9.7,20.8,12.9"/>
	<path class="st14" d="M103.2,366c0,0,8.4,9.8,21.2,13.9"/>
	<line class="st15" x1="76.2" y1="262.9" x2="86.8" y2="276.8"/>
	<line class="st15" x1="99.2" y1="230.9" x2="97.9" y2="246.7"/>
	<line class="st16" x1="133.6" y1="303.9" x2="129.8" y2="321.3"/>
	<line class="st16" x1="122.2" y1="272.3" x2="114.1" y2="289.2"/>
	<line class="st16" x1="117.7" y1="241.6" x2="105.2" y2="271.7"/>
	<line class="st16" x1="117" y1="219.7" x2="100.9" y2="254.9"/>
	<path class="st1" d="M198.6,423c0,0-0.2-0.1-0.5-0.3c-4.8-3-44.6-27.3-73.8-33.8c-31.1-6.9-86.2-3.2-90.1-3.2s-20.6-9.5-20.6-9.5
		s4.9,28.4,29.2,46.8s46,31.3,73.4,33.9c27.4,2.6,61.9-9.8,61.9-9.8L198.6,423z"/>
	<line class="st15" x1="137.2" y1="451.1" x2="156.5" y2="445.6"/>
	<line class="st15" x1="121.6" y1="449.6" x2="141.1" y2="444.8"/>
	<line class="st15" x1="106.8" y1="443" x2="128.7" y2="443"/>
	<line class="st15" x1="92.1" y1="442" x2="112.9" y2="438.3"/>
	<line class="st15" x1="83.9" y1="435" x2="111.8" y2="435"/>
	<line class="st15" x1="69.3" y1="429.4" x2="96.5" y2="429.4"/>
	<line class="st15" x1="56.7" y1="423" x2="92.1" y2="423.5"/>
	<line class="st15" x1="49" y1="414.2" x2="72.1" y2="415"/>
	<line class="st14" x1="34.6" y1="389.4" x2="72.8" y2="409.3"/>
	<line class="st15" x1="62.6" y1="389.4" x2="83.9" y2="405.8"/>
	<line class="st15" x1="83.9" y1="393.2" x2="102.5" y2="412"/>
	<line class="st15" x1="95.9" y1="393.2" x2="113.8" y2="412"/>
	<line class="st15" x1="111.8" y1="397.6" x2="130.6" y2="416"/>
	<line class="st15" x1="89" y1="414.2" x2="112.9" y2="426.6"/>
	<line class="st17" x1="122.9" y1="397.6" x2="146.8" y2="420.4"/>
	<path class="st18" d="M179.4,445.6c0,0-35.7,14.3-35.7,28.3c0,14,10.6,14.7,13.9,14.7c0,0,10.2,1,13.6-11.6
		C175,463.1,179.4,445.6,179.4,445.6z"/>
	<path class="st18" d="M266.6,418.8c0,0-17.7-17.2-51.2-17.2s-48.6,18.5-49.3,34c-0.7,15.5,13.9,34.1,49.6,31.6s51.6-13.7,52.9-17.6
		S266.6,418.8,266.6,418.8z"/>
	<g>
		<path class="st6" d="M234.1,423c-0.8,0-1.5,0-2.3,0c0-0.5,0-0.9,0-1.4c0.7,0,1.4,0,2.3,0C234.1,422,234.1,422.5,234.1,423z"/>
		<path class="st6" d="M242.8,421.9c-0.1,0.6-0.1,1-0.2,1.6c-0.8-0.1-1.5-0.2-2.4-0.3c0.1-0.5,0.1-0.9,0.2-1.4
			C241.2,421.9,241.9,421.9,242.8,421.9z"/>
		<path class="st6" d="M267.2,435.9c0,0.9-0.1,1.7-0.1,2.6c-1.6-0.6-1.6-0.6-1.3-2.9C266.2,435.7,266.7,435.8,267.2,435.9z"/>
		<path class="st6" d="M236.2,445.3c-0.9,0-1.6,0.1-2.4,0.1c0-0.5-0.1-0.9-0.1-1.5c0.8-0.1,1.5-0.1,2.4-0.2
			C236.2,444.3,236.2,444.8,236.2,445.3z"/>
		<path class="st6" d="M227.7,423.2c-0.1-0.6-0.1-1-0.2-1.5c0.8-0.1,1.5-0.1,2.4-0.2c0.1,0.5,0.1,0.9,0.2,1.4
			C229.2,423.1,228.5,423.2,227.7,423.2z"/>
		<path class="st6" d="M223.5,423.7c-0.1-0.5-0.2-0.9-0.3-1.5c0.8-0.1,1.5-0.3,2.4-0.4c0.1,0.5,0.1,1,0.2,1.5
			C225.1,423.5,224.3,423.6,223.5,423.7z"/>
		<path class="st6" d="M231.9,444c0,0.6,0,1.1,0,1.6c-0.8,0-1.5,0-2.3,0c0-0.4-0.1-0.8-0.1-1.4C230.3,444.1,231,444.1,231.9,444z"/>
		<path class="st6" d="M242.1,443.3c0.8-0.1,1.5-0.2,2.4-0.3c0.1,0.5,0.1,0.9,0.2,1.5c-0.8,0.1-1.5,0.2-2.3,0.3
			C242.3,444.3,242.2,443.9,242.1,443.3z"/>
		<path class="st6" d="M212.8,441.7c0.4-0.4,0.7-0.8,1-1.1c0.6,0.5,1.2,0.9,1.9,1.4c-0.3,0.4-0.5,0.8-0.8,1.3
			C214.2,442.7,213.5,442.2,212.8,441.7z"/>
		<path class="st6" d="M238.4,421.6c0.1,1.7,0.1,1.7-2.4,1.3c0-0.4,0-0.8,0.1-1.3C236.9,421.6,237.6,421.6,238.4,421.6z"/>
		<path class="st6" d="M247,422.4c-0.1,0.5-0.1,1-0.2,1.5c-0.7-0.1-1.5-0.2-2.3-0.2c0.1-0.5,0.1-1,0.2-1.5
			C245.5,422.3,246.2,422.4,247,422.4z"/>
		<path class="st6" d="M212.6,439.3c-0.4,0.3-0.7,0.6-1.1,1c-0.5-0.7-1-1.3-1.5-2.1c0.5-0.3,0.9-0.5,1.4-0.8
			C211.7,438,212.1,438.6,212.6,439.3z"/>
		<path class="st6" d="M252.9,442c0.1,0.5,0.2,1,0.3,1.5c-0.8,0.1-1.5,0.2-2.4,0.4c-0.1-0.5-0.2-1-0.3-1.5
			C251.4,442.2,252.1,442.1,252.9,442z"/>
		<path class="st6" d="M246.6,444.3c-0.1-0.6-0.2-0.9-0.2-1.5c0.8-0.1,1.5-0.2,2.4-0.3c0.1,0.5,0.2,0.9,0.3,1.5
			C248.2,444.1,247.4,444.2,246.6,444.3z"/>
		<path class="st6" d="M219,445.1c-0.9-0.3-1.6-0.6-2.4-0.9c0.2-0.5,0.4-0.9,0.7-1.4c0.7,0.3,1.4,0.5,2.2,0.8
			C219.3,444.1,219.1,444.5,219,445.1z"/>
		<path class="st6" d="M208.9,431.6c0.4-0.9,0.7-1.7,1-2.5c0.5,0.3,0.9,0.5,1.3,0.8c-0.3,0.7-0.5,1.3-0.8,2.1
			C210,431.8,209.6,431.7,208.9,431.6z"/>
		<path class="st6" d="M267,433.8c-0.6,0-1,0-1.5,0c-0.1-0.7-0.2-1.4-0.4-2.2c0.5-0.1,0.9-0.2,1.5-0.4
			C266.7,432.1,266.9,432.9,267,433.8z"/>
		<path class="st6" d="M255.5,423.7c-0.1,0.5-0.1,0.9-0.2,1.5c-0.8-0.1-1.5-0.2-2.3-0.3c0.1-0.5,0.1-1,0.2-1.5
			C253.9,423.5,254.6,423.6,255.5,423.7z"/>
		<path class="st6" d="M217.1,423.7c0.2,0.5,0.3,0.9,0.5,1.4c-0.7,0.3-1.4,0.6-2.1,0.9c-0.2-0.4-0.5-0.8-0.7-1.4
			C215.6,424.3,216.4,424,217.1,423.7z"/>
		<path class="st6" d="M259.2,442.5c-0.1-0.6-0.2-1-0.3-1.4c0.7-0.2,1.4-0.3,2.2-0.5c0.2,0.5,0.4,0.9,0.6,1.4
			C260.9,442.1,260.1,442.3,259.2,442.5z"/>
		<path class="st6" d="M262.9,440.1c1.1-0.2,2.2-1.4,3.1,0.2C264.6,441.6,263.8,441.6,262.9,440.1z"/>
		<path class="st6" d="M211.1,427.4c0.7-0.6,1.3-1.1,2-1.7c0.3,0.5,0.6,0.9,0.9,1.3c-0.6,0.5-1.2,1-1.8,1.5
			C211.9,428.1,211.5,427.8,211.1,427.4z"/>
		<path class="st6" d="M220.9,445.6c0.1-0.6,0.2-1,0.3-1.5c0.8,0.1,1.5,0.2,2.3,0.3c0,0.5,0,0.9-0.1,1.4
			C222.5,445.7,221.8,445.6,220.9,445.6z"/>
		<path class="st6" d="M221.3,422.5c0.1,0.6,0.2,1,0.3,1.5c-0.8,0.2-1.4,0.4-2.3,0.6c-0.1-0.5-0.3-0.9-0.4-1.4
			C219.7,422.9,220.5,422.7,221.3,422.5z"/>
		<path class="st6" d="M251,424.5c-0.8-0.1-1.5-0.2-2.3-0.3c0.1-0.5,0.1-0.9,0.2-1.5c0.8,0.1,1.6,0.2,2.4,0.3
			C251.2,423.5,251.1,423.9,251,424.5z"/>
		<path class="st6" d="M210.6,435.8c-0.5,0.2-0.9,0.3-1.5,0.5c-0.1-0.9-0.3-1.7-0.4-2.6c0.6,0,1,0,1.5,0
			C210.3,434.3,210.5,435,210.6,435.8z"/>
		<path class="st6" d="M238.1,445.2c0-0.6-0.1-1-0.1-1.6c0.8,0,1.5-0.1,2.4-0.1c0,0.5,0.1,0.9,0.1,1.4
			C239.7,445,239,445.1,238.1,445.2z"/>
		<path class="st6" d="M255,443.2c-0.1-0.6-0.1-1-0.2-1.5c0.8-0.1,1.5-0.3,2.3-0.4c0.1,0.5,0.2,0.9,0.3,1.5
			C256.6,442.9,255.8,443,255,443.2z"/>
		<path class="st6" d="M257.3,424.1c0.8,0.1,1.5,0.3,2.3,0.4c-0.1,0.5-0.2,0.9-0.3,1.5c-0.8-0.1-1.5-0.3-2.3-0.4
			C257.1,425.1,257.2,424.6,257.3,424.1z"/>
		<path class="st6" d="M227.7,444.3c0,0.4,0,0.8,0,1.3c-0.7,0-1.5,0.1-2.3,0.1c0-0.5,0-0.9-0.1-1.4
			C226.1,444.3,226.9,444.3,227.7,444.3z"/>
		<path class="st6" d="M263.2,425.9c1.4,0,2,0.3,2,1.7c-0.5,0-1.2,0.1-1.6-0.2C263.4,427.2,263.4,426.5,263.2,425.9z"/>
		<path class="st6" d="M266,429.9c-0.6,0.1-1,0.2-1.5,0.3c-0.1-0.5-0.2-0.9-0.3-1.3c0.5-0.1,0.9-0.2,1.4-0.4
			C265.7,429,265.8,429.3,266,429.9z"/>
		<path class="st6" d="M262.5,425.6c-0.1,0.6-0.2,1-0.4,1.5c-0.5-0.1-0.9-0.2-1.3-0.3c0.1-0.5,0.2-0.9,0.3-1.4
			C261.5,425.4,261.9,425.5,262.5,425.6z"/>
	</g>
	<line class="st19" x1="253.3" y1="416.8" x2="256" y2="422.5"/>
	<line class="st20" x1="245.3" y1="413.8" x2="248.3" y2="420.2"/>
	<line class="st20" x1="237.8" y1="411" x2="240.7" y2="418.7"/>
	<line class="st20" x1="228.3" y1="411" x2="233.2" y2="418.7"/>
	<line class="st20" x1="217.8" y1="409.8" x2="224.1" y2="417"/>
	<line class="st21" x1="208.1" y1="409.5" x2="215.7" y2="419.2"/>
	<line class="st21" x1="200.4" y1="412.7" x2="208.7" y2="420.2"/>
	<line class="st21" x1="188.3" y1="414.8" x2="200.7" y2="422.6"/>
	<line class="st21" x1="184.5" y1="420.6" x2="195.8" y2="427.7"/>
	<line class="st22" x1="180.7" y1="427.7" x2="191.3" y2="430.6"/>
	<line class="st22" x1="177.9" y1="435" x2="190.8" y2="435.6"/>
	<line class="st22" x1="180.7" y1="442.7" x2="191.3" y2="439.5"/>
	<line class="st22" x1="184.4" y1="449.7" x2="195" y2="443.2"/>
	<line class="st22" x1="188" y1="455.7" x2="200.9" y2="447.9"/>
	<line class="st22" x1="200.4" y1="457.3" x2="209.5" y2="449.2"/>
	<line class="st22" x1="208.1" y1="460.3" x2="215.7" y2="450.9"/>
	<line class="st20" x1="217.8" y1="459.9" x2="224.4" y2="452.9"/>
	<line class="st20" x1="228.3" y1="459.5" x2="233.2" y2="451.8"/>
	<line class="st20" x1="237.4" y1="459.5" x2="241" y2="451.3"/>
	<line class="st20" x1="245.3" y1="456.4" x2="248.3" y2="450.1"/>
	<line class="st19" x1="253.3" y1="453.3" x2="256.3" y2="447.5"/>
	<g>
		<path class="st10" d="M560.6,376.3c-5.7,2.2-27.3,10.9-30.1,16.2c0,0,1.3-20.7,11.9-35.2s22.2-4.8,22.2-4.8s13.5,11.2-1.1,22.3
			C562.6,375.4,561.6,375.9,560.6,376.3z"/>
		<circle class="st11" cx="555.6" cy="363.3" r="13.1"/>
	</g>
	<g>
		<path class="st10" d="M577.5,325.1c-6.1,0.3-29.4,1.9-33.7,6c0,0,7.7-19.3,22.2-29.7c14.6-10.4,22.6,2.3,22.6,2.3s9.3,14.8-8,20.8
			C579.7,324.9,578.6,325.1,577.5,325.1z"/>
		<circle class="st11" cx="576.8" cy="311.1" r="13.1"/>
	</g>
	<path class="st12" d="M407.8,21.6c0,0,43.3,1.6,80,41.3s22.3,70.2,21,78.8c0,0-37.6-1.4-70.9-41.1S407.8,21.6,407.8,21.6z"/>
	<path class="st13" d="M447.1,62.4c0,0,41,18.7,37.8,50.7C484.9,113,449.3,101.1,447.1,62.4z"/>
	<line class="st13" x1="417.7" y1="31.7" x2="434.4" y2="49.4"/>
	<line class="st13" x1="442.7" y1="41.6" x2="449.3" y2="55.4"/>
	<line class="st13" x1="454.7" y1="47.8" x2="461.8" y2="63.3"/>
	<line class="st13" x1="468.2" y1="59.2" x2="475" y2="75.4"/>
	<line class="st13" x1="486.7" y1="76.2" x2="486.7" y2="92.6"/>
	<line class="st13" x1="497.2" y1="85.8" x2="497.2" y2="102"/>
	<line class="st13" x1="439.1" y1="61.1" x2="421.4" y2="57.2"/>
	<line class="st13" x1="439.1" y1="69.9" x2="425.2" y2="66.5"/>
	<line class="st13" x1="446" y1="79.6" x2="430.5" y2="78.7"/>
	<line class="st13" x1="452" y1="89" x2="436.6" y2="89"/>
	<line class="st13" x1="457.8" y1="97.4" x2="441.8" y2="97.4"/>
	<line class="st13" x1="461.8" y1="106.2" x2="449.9" y2="106.2"/>
	<line class="st13" x1="470.4" y1="114.7" x2="457.3" y2="114.7"/>
	<path class="st1" d="M486.8,101.5c0,0,40,19,58.5,71.1c18.5,52.1-7.3,74.9-12.1,82.5c0,0-34.8-16.5-50.1-67.2
		S486.8,101.5,486.8,101.5z"/>
	<path class="st14" d="M507.3,155.7c0,0,31,34.1,15.1,62.8C522.4,218.5,493.7,192.9,507.3,155.7z"/>
	<line class="st14" x1="492" y1="115" x2="500.6" y2="138.3"/>
	<line class="st14" x1="511.5" y1="134.4" x2="512.2" y2="150"/>
	<line class="st14" x1="520.3" y1="145" x2="520.8" y2="162.4"/>
	<line class="st14" x1="528.4" y1="161.2" x2="528.2" y2="179.2"/>
	<line class="st14" x1="538.9" y1="184.6" x2="532.3" y2="200.1"/>
	<line class="st14" x1="545" y1="197.9" x2="538.5" y2="213.1"/>
	<line class="st14" x1="500.3" y1="151.2" x2="485.2" y2="140.4"/>
	<line class="st14" x1="496.7" y1="159.5" x2="485.1" y2="150.7"/>
	<line class="st14" x1="499.3" y1="171.4" x2="485.1" y2="164.4"/>
	<line class="st14" x1="501.2" y1="182.6" x2="486.7" y2="176.4"/>
	<line class="st14" x1="503.2" y1="192.9" x2="488.2" y2="186.4"/>
	<line class="st14" x1="503.5" y1="202.7" x2="492.3" y2="197.9"/>
	<line class="st14" x1="508.2" y1="214.2" x2="495.8" y2="208.9"/>
	<path class="st1" d="M572.2,142.2c0,0,23.8,37.4,11.8,91.3c-12,54-46,59.6-54.1,63.5c0,0-20.7-32.5-6.7-83.6
		C537.3,162.3,572.2,142.2,572.2,142.2z"/>
	<path class="st14" d="M560.8,199.1c0,0,8.1,45.4-20.6,61.3C540.2,260.3,529.5,223.4,560.8,199.1z"/>
	<line class="st14" x1="569.5" y1="156.5" x2="564.4" y2="180.8"/>
	<line class="st14" x1="575.7" y1="183.2" x2="567.9" y2="196.8"/>
	<line class="st14" x1="577.5" y1="197" x2="568.6" y2="212"/>
	<line class="st14" x1="575.8" y1="215" x2="566.1" y2="230.1"/>
	<line class="st14" x1="572.2" y1="240.4" x2="558.4" y2="249.9"/>
	<line class="st14" x1="570.3" y1="254.9" x2="556.7" y2="264.3"/>
	<line class="st14" x1="557.3" y1="191.5" x2="550.2" y2="174.4"/>
	<line class="st14" x1="549.8" y1="196.7" x2="544.6" y2="183"/>
	<line class="st14" x1="545.7" y1="208.1" x2="537.4" y2="194.6"/>
	<line class="st14" x1="541.3" y1="218.6" x2="532.4" y2="205.7"/>
	<line class="st14" x1="537.6" y1="228.4" x2="528.3" y2="214.9"/>
	<line class="st14" x1="532.6" y1="236.9" x2="525.6" y2="226.9"/>
	<line class="st14" x1="530.4" y1="249.1" x2="522.8" y2="238"/>
	<path class="st1" d="M500.6,212c0,0,6,113.4-84.7,200.3l11.5,36.2c0,0,103-59.5,126.3-136.1C575.6,240.3,537.6,215.4,500.6,212z"/>
	<path class="st6" d="M508.2,297.9c0,0,3.2,53.4-62.8,125.2l-4.1-4.3C441.2,418.8,505.3,336.9,508.2,297.9z"/>
	<path class="st6" d="M525.7,280.3c0,0,3.7,60.7-54.5,131.7l-4.1-4.3C467.1,407.7,506.9,361.6,525.7,280.3z"/>
	<line class="st14" x1="447.6" y1="384.2" x2="447" y2="397.8"/>
	<line class="st14" x1="455.1" y1="391" x2="453.7" y2="395.3"/>
	<line class="st14" x1="456.4" y1="381.1" x2="455.7" y2="386.5"/>
	<line class="st14" x1="458" y1="367.4" x2="457.2" y2="375.3"/>
	<line class="st14" x1="465.8" y1="367.4" x2="465.2" y2="386.5"/>
	<line class="st14" x1="473" y1="349.9" x2="473" y2="366"/>
	<line class="st14" x1="482.5" y1="326" x2="485.7" y2="343.2"/>
	<line class="st14" x1="495" y1="290.8" x2="499.2" y2="310.3"/>
	<line class="st14" x1="497.1" y1="281.5" x2="504.7" y2="299.8"/>
	<line class="st14" x1="504.7" y1="260.3" x2="512.5" y2="279"/>
	<line class="st14" x1="536.8" y1="232.9" x2="530.4" y2="259.1"/>
	<line class="st14" x1="541.7" y1="250.2" x2="533.6" y2="265.9"/>
	<line class="st14" x1="555.3" y1="269.5" x2="534.6" y2="293.5"/>
	<line class="st14" x1="554.3" y1="281.5" x2="534.6" y2="303.2"/>
	<path class="st14" d="M552.9,296.1c0,0-11.5,13-19.3,16.2"/>
	<path class="st14" d="M551.9,308.8c0,0-11.6,10.3-21.5,14.4"/>
	<path class="st14" d="M543.3,325.4c0,0-3.6,6.1-21.3,14.2"/>
	<path class="st14" d="M539.7,337c0,0-8.3,9.3-21.3,12.9"/>
	<path class="st14" d="M531.5,352.1c0,0-10.9,9.7-20.8,12.9"/>
	<path class="st14" d="M520.5,366c0,0-8.4,9.8-21.2,13.9"/>
	<line class="st15" x1="547.4" y1="262.9" x2="536.8" y2="276.8"/>
	<line class="st15" x1="524.4" y1="230.9" x2="525.8" y2="246.7"/>
	<line class="st16" x1="490" y1="303.9" x2="493.8" y2="321.3"/>
	<line class="st16" x1="501.4" y1="272.3" x2="509.5" y2="289.2"/>
	<line class="st16" x1="506" y1="241.6" x2="518.4" y2="271.7"/>
	<line class="st16" x1="506.6" y1="219.7" x2="522.8" y2="254.9"/>
	<path class="st1" d="M425,423c0,0,0.2-0.1,0.5-0.3c4.8-3,44.6-27.3,73.8-33.8c31.1-6.9,86.2-3.2,90.1-3.2c3.9,0,20.6-9.5,20.6-9.5
		s-4.9,28.4-29.2,46.8s-46,31.3-73.4,33.9c-27.4,2.6-61.9-9.8-61.9-9.8L425,423z"/>
	<line class="st15" x1="486.5" y1="451.1" x2="467.1" y2="445.6"/>
	<line class="st15" x1="502" y1="449.6" x2="482.5" y2="444.8"/>
	<line class="st15" x1="516.8" y1="443" x2="495" y2="443"/>
	<line class="st15" x1="531.5" y1="442" x2="510.7" y2="438.3"/>
	<line class="st15" x1="539.7" y1="435" x2="511.9" y2="435"/>
	<line class="st15" x1="554.3" y1="429.4" x2="527.1" y2="429.4"/>
	<line class="st15" x1="566.9" y1="423" x2="531.5" y2="423.5"/>
	<line class="st15" x1="574.6" y1="414.2" x2="551.5" y2="415"/>
	<line class="st14" x1="589" y1="389.4" x2="550.9" y2="409.3"/>
	<line class="st15" x1="561" y1="389.4" x2="539.7" y2="405.8"/>
	<line class="st15" x1="539.7" y1="393.2" x2="521.1" y2="412"/>
	<line class="st15" x1="527.8" y1="393.2" x2="509.9" y2="412"/>
	<line class="st15" x1="511.9" y1="397.6" x2="493" y2="416"/>
	<line class="st15" x1="534.6" y1="414.2" x2="510.7" y2="426.6"/>
	<line class="st17" x1="500.7" y1="397.6" x2="476.8" y2="420.4"/>
	<path class="st18" d="M444.2,445.6c0,0,35.7,14.3,35.7,28.3c0,14-10.6,14.7-13.9,14.7c0,0-10.2,1-13.6-11.6
		C448.6,463.1,444.2,445.6,444.2,445.6z"/>
	<path class="st18" d="M357.1,418.8c0,0,17.7-17.2,51.2-17.2s48.6,18.5,49.3,34c0.7,15.5-13.9,34.1-49.6,31.6s-51.6-13.7-52.9-17.6
		C353.7,445.6,357.1,418.8,357.1,418.8z"/>
	<g>
		<path class="st6" d="M389.5,423c0.8,0,1.5,0,2.3,0c0-0.5,0-0.9,0-1.4c-0.7,0-1.4,0-2.3,0C389.5,422,389.5,422.5,389.5,423z"/>
		<path class="st6" d="M380.8,421.9c0.1,0.6,0.1,1,0.2,1.6c0.8-0.1,1.5-0.2,2.4-0.3c-0.1-0.5-0.1-0.9-0.2-1.4
			C382.4,421.9,381.7,421.9,380.8,421.9z"/>
		<path class="st6" d="M356.4,435.9c0,0.9,0.1,1.7,0.1,2.6c1.6-0.6,1.6-0.6,1.3-2.9C357.4,435.7,356.9,435.8,356.4,435.9z"/>
		<path class="st6" d="M387.4,445.3c0.9,0,1.6,0.1,2.4,0.1c0-0.5,0.1-0.9,0.1-1.5c-0.8-0.1-1.5-0.1-2.4-0.2
			C387.5,444.3,387.4,444.8,387.4,445.3z"/>
		<path class="st6" d="M396,423.2c0.1-0.6,0.1-1,0.2-1.5c-0.8-0.1-1.5-0.1-2.4-0.2c-0.1,0.5-0.1,0.9-0.2,1.4
			C394.4,423.1,395.1,423.2,396,423.2z"/>
		<path class="st6" d="M400.1,423.7c0.1-0.5,0.2-0.9,0.3-1.5c-0.8-0.1-1.5-0.3-2.4-0.4c-0.1,0.5-0.1,1-0.2,1.5
			C398.6,423.5,399.3,423.6,400.1,423.7z"/>
		<path class="st6" d="M391.7,444c0,0.6,0,1.1,0,1.6c0.8,0,1.5,0,2.3,0c0-0.4,0.1-0.8,0.1-1.4C393.3,444.1,392.6,444.1,391.7,444z"
			/>
		<path class="st6" d="M381.5,443.3c-0.8-0.1-1.5-0.2-2.4-0.3c-0.1,0.5-0.1,0.9-0.2,1.5c0.8,0.1,1.5,0.2,2.3,0.3
			C381.3,444.3,381.4,443.9,381.5,443.3z"/>
		<path class="st6" d="M410.8,441.7c-0.4-0.4-0.7-0.8-1-1.1c-0.6,0.5-1.2,0.9-1.9,1.4c0.3,0.4,0.5,0.8,0.8,1.3
			C409.5,442.7,410.1,442.2,410.8,441.7z"/>
		<path class="st6" d="M385.2,421.6c-0.1,1.7-0.1,1.7,2.4,1.3c0-0.4,0-0.8-0.1-1.3C386.7,421.6,386,421.6,385.2,421.6z"/>
		<path class="st6" d="M376.6,422.4c0.1,0.5,0.1,1,0.2,1.5c0.7-0.1,1.5-0.2,2.3-0.2c-0.1-0.5-0.1-1-0.2-1.5
			C378.1,422.3,377.4,422.4,376.6,422.4z"/>
		<path class="st6" d="M411,439.3c0.4,0.3,0.7,0.6,1.1,1c0.5-0.7,1-1.3,1.5-2.1c-0.5-0.3-0.9-0.5-1.4-0.8
			C411.9,438,411.5,438.6,411,439.3z"/>
		<path class="st6" d="M370.7,442c-0.1,0.5-0.2,1-0.3,1.5c0.8,0.1,1.5,0.2,2.4,0.4c0.1-0.5,0.2-1,0.3-1.5
			C372.2,442.2,371.5,442.1,370.7,442z"/>
		<path class="st6" d="M377,444.3c0.1-0.6,0.2-0.9,0.2-1.5c-0.8-0.1-1.5-0.2-2.4-0.3c-0.1,0.5-0.2,0.9-0.3,1.5
			C375.4,444.1,376.2,444.2,377,444.3z"/>
		<path class="st6" d="M404.6,445.1c0.9-0.3,1.6-0.6,2.4-0.9c-0.2-0.5-0.4-0.9-0.7-1.4c-0.7,0.3-1.4,0.5-2.2,0.8
			C404.4,444.1,404.5,444.5,404.6,445.1z"/>
		<path class="st6" d="M414.7,431.6c-0.4-0.9-0.7-1.7-1-2.5c-0.5,0.3-0.9,0.5-1.3,0.8c0.3,0.7,0.5,1.3,0.8,2.1
			C413.6,431.8,414.1,431.7,414.7,431.6z"/>
		<path class="st6" d="M356.6,433.8c0.6,0,1,0,1.5,0c0.1-0.7,0.2-1.4,0.4-2.2c-0.5-0.1-0.9-0.2-1.5-0.4
			C356.9,432.1,356.7,432.9,356.6,433.8z"/>
		<path class="st6" d="M368.2,423.7c0.1,0.5,0.1,0.9,0.2,1.5c0.8-0.1,1.5-0.2,2.3-0.3c-0.1-0.5-0.1-1-0.2-1.5
			C369.7,423.5,369,423.6,368.2,423.7z"/>
		<path class="st6" d="M406.5,423.7c-0.2,0.5-0.3,0.9-0.5,1.4c0.7,0.3,1.4,0.6,2.1,0.9c0.2-0.4,0.5-0.8,0.7-1.4
			C408,424.3,407.3,424,406.5,423.7z"/>
		<path class="st6" d="M364.4,442.5c0.1-0.6,0.2-1,0.3-1.4c-0.7-0.2-1.4-0.3-2.2-0.5c-0.2,0.5-0.4,0.9-0.6,1.4
			C362.7,442.1,363.5,442.3,364.4,442.5z"/>
		<path class="st6" d="M360.7,440.1c-1.1-0.2-2.2-1.4-3.1,0.2C359,441.6,359.9,441.6,360.7,440.1z"/>
		<path class="st6" d="M412.5,427.4c-0.7-0.6-1.3-1.1-2-1.7c-0.3,0.5-0.6,0.9-0.9,1.3c0.6,0.5,1.2,1,1.8,1.5
			C411.7,428.1,412.1,427.8,412.5,427.4z"/>
		<path class="st6" d="M402.8,445.6c-0.1-0.6-0.2-1-0.3-1.5c-0.8,0.1-1.5,0.2-2.3,0.3c0,0.5,0,0.9,0.1,1.4
			C401.1,445.7,401.8,445.6,402.8,445.6z"/>
		<path class="st6" d="M402.3,422.5c-0.1,0.6-0.2,1-0.3,1.5c0.8,0.2,1.4,0.4,2.3,0.6c0.1-0.5,0.3-0.9,0.4-1.4
			C403.9,422.9,403.2,422.7,402.3,422.5z"/>
		<path class="st6" d="M372.6,424.5c0.8-0.1,1.5-0.2,2.3-0.3c-0.1-0.5-0.1-0.9-0.2-1.5c-0.8,0.1-1.6,0.2-2.4,0.3
			C372.4,423.5,372.5,423.9,372.6,424.5z"/>
		<path class="st6" d="M413,435.8c0.5,0.2,0.9,0.3,1.5,0.5c0.1-0.9,0.3-1.7,0.4-2.6c-0.6,0-1,0-1.5,0
			C413.3,434.3,413.2,435,413,435.8z"/>
		<path class="st6" d="M385.5,445.2c0-0.6,0.1-1,0.1-1.6c-0.8,0-1.5-0.1-2.4-0.1c0,0.5-0.1,0.9-0.1,1.4
			C383.9,445,384.7,445.1,385.5,445.2z"/>
		<path class="st6" d="M368.7,443.2c0.1-0.6,0.1-1,0.2-1.5c-0.8-0.1-1.5-0.3-2.3-0.4c-0.1,0.5-0.2,0.9-0.3,1.5
			C367,442.9,367.8,443,368.7,443.2z"/>
		<path class="st6" d="M366.3,424.1c-0.8,0.1-1.5,0.3-2.3,0.4c0.1,0.5,0.2,0.9,0.3,1.5c0.8-0.1,1.5-0.3,2.3-0.4
			C366.5,425.1,366.4,424.6,366.3,424.1z"/>
		<path class="st6" d="M396,444.3c0,0.4,0,0.8,0,1.3c0.7,0,1.5,0.1,2.3,0.1c0-0.5,0-0.9,0.1-1.4C397.5,444.3,396.8,444.3,396,444.3z
			"/>
		<path class="st6" d="M360.4,425.9c-1.4,0-2,0.3-2,1.7c0.5,0,1.2,0.1,1.6-0.2C360.3,427.2,360.2,426.5,360.4,425.9z"/>
		<path class="st6" d="M357.6,429.9c0.6,0.1,1,0.2,1.5,0.3c0.1-0.5,0.2-0.9,0.3-1.3c-0.5-0.1-0.9-0.2-1.4-0.4
			C357.9,429,357.8,429.3,357.6,429.9z"/>
		<path class="st6" d="M361.2,425.6c0.1,0.6,0.2,1,0.4,1.5c0.5-0.1,0.9-0.2,1.3-0.3c-0.1-0.5-0.2-0.9-0.3-1.4
			C362.1,425.4,361.7,425.5,361.2,425.6z"/>
	</g>
	<line class="st19" x1="370.3" y1="416.8" x2="367.7" y2="422.5"/>
	<line class="st20" x1="378.3" y1="413.8" x2="375.4" y2="420.2"/>
	<line class="st20" x1="385.8" y1="411" x2="382.9" y2="418.7"/>
	<line class="st20" x1="395.3" y1="411" x2="390.4" y2="418.7"/>
	<line class="st20" x1="405.8" y1="409.8" x2="399.5" y2="417"/>
	<line class="st21" x1="415.5" y1="409.5" x2="407.9" y2="419.2"/>
	<line class="st21" x1="423.2" y1="412.7" x2="414.9" y2="420.2"/>
	<line class="st21" x1="435.3" y1="414.8" x2="423" y2="422.6"/>
	<line class="st21" x1="439.1" y1="420.6" x2="427.8" y2="427.7"/>
	<line class="st22" x1="442.9" y1="427.7" x2="432.3" y2="430.6"/>
	<line class="st22" x1="445.7" y1="435" x2="432.8" y2="435.6"/>
	<line class="st22" x1="442.9" y1="442.7" x2="432.3" y2="439.5"/>
	<line class="st22" x1="439.3" y1="449.7" x2="428.6" y2="443.2"/>
	<line class="st22" x1="435.6" y1="455.7" x2="422.7" y2="447.9"/>
	<line class="st22" x1="423.2" y1="457.3" x2="414.1" y2="449.2"/>
	<line class="st22" x1="415.5" y1="460.3" x2="407.9" y2="450.9"/>
	<line class="st20" x1="405.8" y1="459.9" x2="399.2" y2="452.9"/>
	<line class="st20" x1="395.3" y1="459.5" x2="390.4" y2="451.8"/>
	<line class="st20" x1="386.2" y1="459.5" x2="382.6" y2="451.3"/>
	<line class="st20" x1="378.3" y1="456.4" x2="375.4" y2="450.1"/>
	<line class="st19" x1="370.3" y1="453.3" x2="367.3" y2="447.5"/>
	<g>
		<path class="st23" d="M263.5,415v51.2c0,0,10.1,7.6,24.5,0c0,0,23.6,7.6,47.2,0c0,0,11.2,7.9,24.3,0l0.5-51.5
			c0,0-12.7,6.2-24.7,0.3c0,0-27.9,7.3-47.2-0.1C288.1,414.9,277.2,420.2,263.5,415z"/>
		<rect x="287.1" y="415.2" class="st6" width="1.9" height="51"/>
		<rect x="334.4" y="415.2" class="st6" width="1.9" height="51"/>
		<path class="st24" d="M263.8,419.2c0,0,10.1,7.6,24.5,0c0,0,23.6,7.6,47.2,0c0,0,11.2,7.9,24.3,0"/>
		<path class="st24" d="M263.8,424.5c0,0,10.1,7.6,24.5,0c0,0,23.6,7.6,47.2,0c0,0,11.2,7.9,24.3,0"/>
		<path class="st24" d="M263.8,429.7c0,0,10.1,7.6,24.5,0c0,0,23.6,7.6,47.2,0c0,0,11.2,7.9,24.3,0"/>
		<path class="st24" d="M263.8,435c0,0,10.1,7.6,24.5,0c0,0,23.6,7.6,47.2,0c0,0,11.2,7.9,24.3,0"/>
		<path class="st24" d="M263.8,440.3c0,0,10.1,7.6,24.5,0c0,0,23.6,7.6,47.2,0c0,0,11.2,7.9,24.3,0"/>
		<path class="st24" d="M263.8,445.6c0,0,10.1,7.6,24.5,0c0,0,23.6,7.6,47.2,0c0,0,11.2,7.9,24.3,0"/>
		<path class="st24" d="M263.8,450.9c0,0,10.1,7.6,24.5,0c0,0,23.6,7.6,47.2,0c0,0,11.2,7.9,24.3,0"/>
		<path class="st24" d="M263.8,456.2c0,0,10.1,7.6,24.5,0c0,0,23.6,7.6,47.2,0c0,0,11.2,7.9,24.3,0"/>
		<path class="st24" d="M263.8,461.5c0,0,10.1,7.6,24.5,0c0,0,23.6,7.6,47.2,0c0,0,11.2,7.9,24.3,0"/>
	</g>
	<g>
		<g>
			<defs>
				<circle id="SVGID_3_" cx="311.8" cy="226.6" r="171.8"/>
			</defs>
			<clipPath id="SVGID_4_">
				<use xlink:href="#SVGID_3_"  style="overflow:visible;"/>
			</clipPath>
			<path class="st25" d="M389,384.7l-15.6-6c0.2-2,0.3-4.1,0.3-6.2c0-2.9-0.2-5.7-0.6-8.5l11.6-7.7l-6.4-16.7l-12,3.4
				c-2.5-4.7-5.6-9.1-9.1-13l6-11.6l-14.4-10.2l-8.8,8.6c-8.8-4.6-18.8-7.3-29.4-7.3c-9.7,0-18.9,2.2-27.1,6.1l-8.8-9.2l-12.9,10.3
				l5.3,10.2c-4.1,3.9-7.6,8.3-10.5,13.2l-11.5-3.4l-6.3,16.8l10.2,6c-0.9,4.2-1.4,8.6-1.4,13.1c0,0.9,0,1.8,0.1,2.7l-17.1,7.1
				l6.9,15.2l13.8-3.9c8.7,24.5,32,42,59.5,42c26.3,0,48.8-16.1,58.3-39l12.3,3.7L389,384.7z M311.1,428c-28,0-50.7-21.3-50.7-47.7
				c0-26.3,22.7-47.7,50.7-47.7c28,0,50.7,21.3,50.7,47.7C361.8,406.7,339.1,428,311.1,428z"/>
		</g>
		<circle class="st26" cx="311.8" cy="226.6" r="171.8"/>
	</g>
	<path class="st27" d="M352.6,324.7l-5.8,4.9c-4.1-4.3-10.1-7.7-17.2-9.6c-4-1-8.3-1.6-12.8-1.6c-5,0-9.8,0.7-14.2,2
		c-12.8,3.8-21.8,12.6-21.8,22.8c0,4.7,1.9,9.1,5.1,12.8l-6.3,13.5c-10.9-6.2-17.9-15.6-17.9-26.1c0-17.9,20.2-32.5,45.9-33.8
		c1.2-0.1,2.4-0.1,3.7-0.1c5.2,0,10.2,0.5,14.9,1.6C337.1,313.5,346.4,318.3,352.6,324.7z M348.8,354.6c-1.2,1.6-2.7,3.2-4.4,4.6
		c-4.1,3.4-9.5,6.1-15.7,7.6c-3.7,0.9-7.8,1.4-11.9,1.4c-8.9,0-17-2.2-23.2-5.9l-5.2,11.4c6.9,2.5,14.7,3.9,23,3.9
		c6.4,0,12.5-0.8,18.1-2.3c6.8-1.8,12.9-4.7,17.9-8.3c3.1-2.2,5.7-4.7,7.8-7.4L348.8,354.6z M355.2,378.2v7.5H328v-7.3l1.5-3.4
		c6.8-1.8,12.9-4.7,17.9-8.3l1.2,3.3L355.2,378.2z M326.3,311.1c-4.7-1-9.7-1.6-14.9-1.6c-1.2,0-2.5,0-3.7,0.1l1.4-3l-4.7-1v-7.9
		h16.8L326.3,311.1z M344.4,359.1c-4.1,3.4-9.5,6.1-15.7,7.6l-4.2-11.2h-27.9l-3.1,6.7l-5.2,11.4l-0.5,1l2.3,3.6v7.6h-18.7v-7.3
		l8.1-8.9L286,356l16.7-35.6c4.3-1.3,9.1-2,14.2-2c4.5,0,8.8,0.6,12.8,1.6L344.4,359.1z M322.2,348.9l-10.8-27.2L300,348.9H322.2z"
		/>
	<g>
		<g>
			<path class="st22" d="M303.5,85.8c0,0-32.1-0.1-38.3,7.4"/>
			<path class="st22" d="M293.7,98.1c0,0-23.6-0.6-35.2,4.7"/>
			<path class="st22" d="M282.4,107.2c0,0-21.5-0.5-29,4.6"/>
		</g>
		<path class="st28" d="M240.4,341c0,0-47.2-34.1-57.1-79.3s-14.8-80.6,20.7-116.1s38.3-34.5,42.8-36.4"/>
		<g>
			<path class="st29" d="M273,113c0,0-13.8,17.2-33.5,3c0,0,9.7-10.7,24.4-5.3C268.4,112.3,271.9,113.3,273,113z"/>
			<path class="st29" d="M252.8,114c0,0,13.7,2.1,20.2-0.9"/>
		</g>
		<g>
			<path class="st29" d="M259.4,121.2c0,0-13.8,17.2-33.5,3c0,0,9.7-10.7,24.4-5.3C254.8,120.5,258.3,121.5,259.4,121.2z"/>
			<path class="st29" d="M239.2,122.2c0,0,13.7,2.1,20.2-0.9"/>
		</g>
		<g>
			<path class="st29" d="M242.2,131.7c0,0-20.2-16.7-30.4,3.2c0,0,7.4,9,21.9,2.1C238.5,134.7,238.8,132.4,242.2,131.7z"/>
			<path class="st29" d="M220.4,134c0,0,8.6-2.9,21.8-2.3"/>
		</g>
		<g>
			<path class="st29" d="M230.6,144.6c0,0-20.2-15.7-30.4,3c0,0,6.5,7.6,21,1.2C226.1,146.5,227.2,145.2,230.6,144.6z"/>
			<path class="st29" d="M208.8,146.7c0,0,8.6-2.8,21.8-2.1"/>
		</g>
		<g>
			<path class="st29" d="M220.1,155.1c0,0-22.7-12.7-29.4,8.4c0,0,7.8,6.7,20.9-2.4C215.9,157.8,216.8,156.3,220.1,155.1z"/>
			<path class="st29" d="M199,161c0,0,8-4.3,21.1-5.9"/>
		</g>
		<g>
			<path class="st29" d="M212.4,165.7c0,0-24.4-9.1-27.7,12.8c0,0,8.7,5.4,20.3-5.6C208.8,169,209.4,167.4,212.4,165.7z"/>
			<path class="st29" d="M192.5,174.8c0,0,7.2-5.5,19.9-9.1"/>
		</g>
		<g>
			<path class="st29" d="M206.4,179c0,0-25.5-7.6-28.8,14.3c0,0,9.8,3.9,21.4-7.2C202.7,182.4,203.4,180.8,206.4,179z"/>
			<path class="st29" d="M186.5,188.2c0,0,7.2-5.5,19.9-9.1"/>
		</g>
		<path class="st29" d="M235.7,328.8c0,0-6.8-7.7-6.3-24.9"/>
		<g>
			<path class="st29" d="M250.9,87.5c0,0-20.2,15-16,30.5c0,0,16.4-3.7,16.3-22.1C251.1,93,250.6,90.6,250.9,87.5z"/>
			<path class="st29" d="M242.7,107.2c0,0,3.2-13.4,8.2-19.7"/>
		</g>
		<g>
			<path class="st29" d="M235.2,95.9c0,0-18.9,14.2-13.9,29.6c0,0,15.7-2.8,14.7-21.1C235.7,101.4,235,99,235.2,95.9z"/>
			<path class="st29" d="M227,114.1c0,0,3.5-11.6,8.2-18.2"/>
		</g>
		<g>
			<path class="st29" d="M219,105.6c0,0-16.2,17.2-8.8,31.5c0,0,15-5.4,11-23.3C220.5,110.9,219.4,108.7,219,105.6z"/>
			<path class="st29" d="M214.3,126.6c0,0,1.2-13.7,4.7-21"/>
		</g>
		<g>
			<path class="st29" d="M206.1,118.9c0,0-16.7,19-8.2,34c0,0,15.9-6.3,10.8-25.3C207.9,124.5,206.6,122.2,206.1,118.9z"/>
			<path class="st29" d="M201.9,141.6c0,0,0.7-14.7,4.2-22.6"/>
		</g>
		<g>
			<path class="st29" d="M191.6,134.9c0,0-14.1,21-3.8,34.8c0,0,14.9-8.3,7.5-26.5C194.1,140.3,192.6,138.1,191.6,134.9z"/>
			<path class="st29" d="M191.4,157.8c0,0-2.2-14.6,0.3-22.9"/>
		</g>
		<g>
			<path class="st29" d="M181.9,152.9c0,0-16.9,20.6,0,30.9C181.9,183.8,193.7,171.7,181.9,152.9z"/>
			<path class="st29" d="M181.4,174.1c0,0-2-6.1,0.5-21.1"/>
		</g>
		<path class="st29" d="M170.6,170.9c0,0-11.9,27.1,8.9,31.7C179.5,202.7,188.7,185.7,170.6,170.9z"/>
		<g>
			<path class="st29" d="M160.2,212.4c0,0-3,29.5,19.2,28C179.3,240.4,182.9,221.9,160.2,212.4z"/>
			<path class="st29" d="M172.8,231.9c0,0-2.3-5.6-12.6-19.5"/>
		</g>
		<path class="st29" d="M176.8,191.8c0,0-2.8-14.9-6.1-20.9"/>
		<g>
			<path class="st29" d="M205.7,189.8c0,0-30.2-4-28.9,23.7c0,0,12-3.5,22.3-15.7C202.4,193.5,202.9,191.8,205.7,189.8z"/>
			<path class="st29" d="M183.3,203.4c0,0,5.9-9.3,22.4-13.6"/>
		</g>
		<g>
			<path class="st29" d="M163.2,189.9c0,0-8.4,28.9,13.7,31.5C176.8,221.4,183.7,203.4,163.2,189.9z"/>
			<path class="st29" d="M172,211.4c0,0-1.2-5.9-8.9-21.5"/>
		</g>
		<g>
			<path class="st29" d="M197.8,220.3c0,0-33.3,11-16.3,33.3c0,0,9.8-6,13.3-23.4C196.3,225.1,196.1,223.3,197.8,220.3z"/>
			<path class="st29" d="M182.5,241.6c0,0,1.8-10.9,15.4-21.2"/>
		</g>
		<g>
			<path class="st29" d="M200.1,202.6c0,0-34.6,5.5-21.5,30.2c0,0,10.7-4.3,16.9-21C197.8,207,197.9,205.3,200.1,202.6z"/>
			<path class="st29" d="M181.5,221.1c0,0,3.5-10.5,18.6-18.4"/>
		</g>
		<g>
			<path class="st29" d="M160.8,234.4c0,0,3,30.5,24.5,24.9C185.3,259.3,184.9,239.5,160.8,234.4z"/>
			<path class="st29" d="M176.8,251.2c0,0-3.3-5.1-16-16.8"/>
		</g>
		<g>
			<path class="st29" d="M198.2,237.5c0,0-29.8,18.5-8.1,36.2c0,0,8.2-8.1,7.5-25.9C197.8,242.4,197.1,240.8,198.2,237.5z"/>
			<path class="st29" d="M188.2,261.7c0,0-0.8-11,10-24.2"/>
		</g>
		<g>
			<path class="st29" d="M163.2,255.6c0,0,7.1,31.9,28.3,23.1C191.4,278.7,188,257.2,163.2,255.6z"/>
			<path class="st29" d="M181.1,270.3c0,0-3.9-4.7-18-14.7"/>
		</g>
		<g>
			<path class="st29" d="M202.3,250.2c0,0-29.5,18.9-7.6,36.3c0,0,8.1-8.2,7.1-26C201.9,255.2,201.3,253.5,202.3,250.2z"/>
			<path class="st29" d="M193.2,276.4c0,0-1.5-12.8,9.1-26.2"/>
		</g>
		<g>
			<path class="st29" d="M168,276.9c0,0,8.9,26.5,29.2,17.3C197.1,294.2,192.8,275.4,168,276.9z"/>
			<path class="st29" d="M187.6,289.2c0,0-4.4-4.2-19.7-12.3"/>
		</g>
		<g>
			<path class="st29" d="M206.4,269.5c0,0-27.9,21.2-4.7,36.8c0,0,7.4-8.8,5.1-26.5C206.5,274.5,205.7,272.9,206.4,269.5z"/>
			<path class="st29" d="M201.5,295.2c0,0-4.6-11.5,4.9-25.6"/>
		</g>
		<g>
			<path class="st29" d="M176.8,293.6c0,0,8.9,26.5,29.2,17.3C206,310.9,201.7,292.1,176.8,293.6z"/>
			<path class="st29" d="M196.5,305.9c0,0-4.4-4.2-19.7-12.3"/>
		</g>
		<g>
			<path class="st29" d="M211.6,279c0,0-22.1,27.2,4.1,36.8c0,0,5.1-10.3-1.3-26.9C212.9,283.8,211.8,282.5,211.6,279z"/>
			<path class="st29" d="M210.1,305.2c0,0-4.3-10.2,1.6-26.1"/>
		</g>
		<g>
			<path class="st29" d="M189.2,312.4c0,0,14.3,24.7,32.9,12C222.1,324.3,214,306.5,189.2,312.4z"/>
			<path class="st29" d="M210.5,319.4c0,0-4.2-2.3-21.3-7"/>
		</g>
		<g>
			<path class="st29" d="M219.4,295.2c0,0-17.8,29.9,10.9,34.7c0,0,3.4-10.8-6.2-25.7C221.5,299.6,220.1,298.5,219.4,295.2z"/>
			<path class="st29" d="M222.5,314.2c0,0-3.4-2.5-3.1-19"/>
		</g>
		<path class="st29" d="M229.4,303.9c0,0-12.7,19.2,5.6,30.9c0,0,9.7-5.5-2.6-25.4C230,305.9,229.4,303.9,229.4,303.9z"/>
		<g>
			<path class="st29" d="M201,328.5c0,0,19.2,18.8,32.5,7.4c0,0-7.9-12.2-24.3-9.4C204.5,327.5,204,328.3,201,328.5z"/>
			<path class="st29" d="M223.6,335.3c0,0-13.9-6.8-22.6-6.8"/>
		</g>
		<g>
			<path class="st29" d="M269.3,85.3c0,0-22.9,5.9-24.2,21.9c0,0,15.6,3.4,21.7-13.8C267.7,90.6,268,88.1,269.3,85.3z"/>
			<path class="st29" d="M254.9,101.1c0,0,7.5-11.5,14.4-15.8"/>
		</g>
	</g>
	<g>
		<g>
			<path class="st22" d="M320.1,85.8c0,0,32.1-0.1,38.3,7.4"/>
			<path class="st22" d="M329.9,98.1c0,0,23.6-0.6,35.2,4.7"/>
			<path class="st22" d="M341.3,107.2c0,0,21.5-0.5,29,4.6"/>
		</g>
		<path class="st28" d="M383.2,341c0,0,47.2-34.1,57.1-79.3c9.9-45.1,14.8-80.6-20.7-116.1s-38.3-34.5-42.8-36.4"/>
		<g>
			<path class="st29" d="M350.6,113c0,0,13.8,17.2,33.5,3c0,0-9.7-10.7-24.4-5.3C355.3,112.3,351.7,113.3,350.6,113z"/>
			<path class="st29" d="M370.8,114c0,0-13.7,2.1-20.2-0.9"/>
		</g>
		<g>
			<path class="st29" d="M364.2,121.2c0,0,13.8,17.2,33.5,3c0,0-9.7-10.7-24.4-5.3C368.9,120.5,365.3,121.5,364.2,121.2z"/>
			<path class="st29" d="M384.4,122.2c0,0-13.7,2.1-20.2-0.9"/>
		</g>
		<g>
			<path class="st29" d="M381.4,131.7c0,0,20.2-16.7,30.4,3.2c0,0-7.4,9-21.9,2.1C385.1,134.7,384.8,132.4,381.4,131.7z"/>
			<path class="st29" d="M403.2,134c0,0-8.6-2.9-21.8-2.3"/>
		</g>
		<g>
			<path class="st29" d="M393,144.6c0,0,20.2-15.7,30.4,3c0,0-6.5,7.6-21,1.2C397.5,146.5,396.4,145.2,393,144.6z"/>
			<path class="st29" d="M414.8,146.7c0,0-8.6-2.8-21.8-2.1"/>
		</g>
		<g>
			<path class="st29" d="M403.6,155.1c0,0,22.7-12.7,29.4,8.4c0,0-7.8,6.7-20.9-2.4C407.7,157.8,406.8,156.3,403.6,155.1z"/>
			<path class="st29" d="M424.6,161c0,0-8-4.3-21.1-5.9"/>
		</g>
		<g>
			<path class="st29" d="M411.2,165.7c0,0,24.4-9.1,27.7,12.8c0,0-8.7,5.4-20.3-5.6C414.9,169,414.2,167.4,411.2,165.7z"/>
			<path class="st29" d="M431.1,174.8c0,0-7.2-5.5-19.9-9.1"/>
		</g>
		<g>
			<path class="st29" d="M417.3,179c0,0,25.5-7.6,28.8,14.3c0,0-9.8,3.9-21.4-7.2C420.9,182.4,420.2,180.8,417.3,179z"/>
			<path class="st29" d="M437.2,188.2c0,0-7.2-5.5-19.9-9.1"/>
		</g>
		<path class="st29" d="M388,328.8c0,0,6.8-7.7,6.3-24.9"/>
		<g>
			<path class="st29" d="M372.8,87.5c0,0,20.2,15,16,30.5c0,0-16.4-3.7-16.3-22.1C372.5,93,373,90.6,372.8,87.5z"/>
			<path class="st29" d="M380.9,107.2c0,0-3.2-13.4-8.2-19.7"/>
		</g>
		<g>
			<path class="st29" d="M388.5,95.9c0,0,18.9,14.2,13.9,29.6c0,0-15.7-2.8-14.7-21.1C387.9,101.4,388.6,99,388.5,95.9z"/>
			<path class="st29" d="M396.6,114.1c0,0-3.5-11.6-8.2-18.2"/>
		</g>
		<g>
			<path class="st29" d="M404.6,105.6c0,0,16.2,17.2,8.8,31.5c0,0-15-5.4-11-23.3C403.1,110.9,404.2,108.7,404.6,105.6z"/>
			<path class="st29" d="M409.3,126.6c0,0-1.2-13.7-4.7-21"/>
		</g>
		<g>
			<path class="st29" d="M417.5,118.9c0,0,16.7,19,8.2,34c0,0-15.9-6.3-10.8-25.3C415.8,124.5,417,122.2,417.5,118.9z"/>
			<path class="st29" d="M421.7,141.6c0,0-0.7-14.7-4.2-22.6"/>
		</g>
		<g>
			<path class="st29" d="M432,134.9c0,0,14.1,21,3.8,34.8c0,0-14.9-8.3-7.5-26.5C429.5,140.3,431.1,138.1,432,134.9z"/>
			<path class="st29" d="M432.3,157.8c0,0,2.2-14.6-0.3-22.9"/>
		</g>
		<g>
			<path class="st29" d="M441.7,152.9c0,0,16.9,20.6,0,30.9C441.7,183.8,429.9,171.7,441.7,152.9z"/>
			<path class="st29" d="M442.2,174.1c0,0,2-6.1-0.5-21.1"/>
		</g>
		<path class="st29" d="M453,170.9c0,0,11.9,27.1-8.9,31.7C444.1,202.7,434.9,185.7,453,170.9z"/>
		<g>
			<path class="st29" d="M463.5,212.4c0,0,3,29.5-19.2,28C444.3,240.4,440.8,221.9,463.5,212.4z"/>
			<path class="st29" d="M450.8,231.9c0,0,2.3-5.6,12.6-19.5"/>
		</g>
		<path class="st29" d="M446.9,191.8c0,0,2.8-14.9,6.1-20.9"/>
		<g>
			<path class="st29" d="M417.9,189.8c0,0,30.2-4,28.9,23.7c0,0-12-3.5-22.3-15.7C421.2,193.5,420.7,191.8,417.9,189.8z"/>
			<path class="st29" d="M440.3,203.4c0,0-5.9-9.3-22.4-13.6"/>
		</g>
		<g>
			<path class="st29" d="M460.5,189.9c0,0,8.4,28.9-13.7,31.5C446.8,221.4,439.9,203.4,460.5,189.9z"/>
			<path class="st29" d="M451.6,211.4c0,0,1.2-5.9,8.9-21.5"/>
		</g>
		<g>
			<path class="st29" d="M425.8,220.3c0,0,33.3,11,16.3,33.3c0,0-9.8-6-13.3-23.4C427.3,225.1,427.6,223.3,425.8,220.3z"/>
			<path class="st29" d="M441.2,241.6c0,0-1.8-10.9-15.4-21.2"/>
		</g>
		<g>
			<path class="st29" d="M423.5,202.6c0,0,34.6,5.5,21.5,30.2c0,0-10.7-4.3-16.9-21C425.8,207,425.7,205.3,423.5,202.6z"/>
			<path class="st29" d="M442.1,221.1c0,0-3.5-10.5-18.6-18.4"/>
		</g>
		<g>
			<path class="st29" d="M462.8,234.4c0,0-3,30.5-24.5,24.9C438.4,259.3,438.8,239.5,462.8,234.4z"/>
			<path class="st29" d="M446.8,251.2c0,0,3.3-5.1,16-16.8"/>
		</g>
		<g>
			<path class="st29" d="M425.5,237.5c0,0,29.8,18.5,8.1,36.2c0,0-8.2-8.1-7.5-25.9C425.9,242.4,426.5,240.8,425.5,237.5z"/>
			<path class="st29" d="M435.5,261.7c0,0,0.8-11-10-24.2"/>
		</g>
		<g>
			<path class="st29" d="M460.5,255.6c0,0-7.1,31.9-28.3,23.1C432.2,278.7,435.6,257.2,460.5,255.6z"/>
			<path class="st29" d="M442.5,270.3c0,0,3.9-4.7,18-14.7"/>
		</g>
		<g>
			<path class="st29" d="M421.4,250.2c0,0,29.5,18.9,7.6,36.3c0,0-8.1-8.2-7.1-26C421.7,255.2,422.3,253.5,421.4,250.2z"/>
			<path class="st29" d="M430.5,276.4c0,0,1.5-12.8-9.1-26.2"/>
		</g>
		<g>
			<path class="st29" d="M455.7,276.9c0,0-8.9,26.5-29.2,17.3C426.5,294.2,430.8,275.4,455.7,276.9z"/>
			<path class="st29" d="M436,289.2c0,0,4.4-4.2,19.7-12.3"/>
		</g>
		<g>
			<path class="st29" d="M417.2,269.5c0,0,27.9,21.2,4.7,36.8c0,0-7.4-8.8-5.1-26.5C417.1,274.5,417.9,272.9,417.2,269.5z"/>
			<path class="st29" d="M422.1,295.2c0,0,4.6-11.5-4.9-25.6"/>
		</g>
		<g>
			<path class="st29" d="M446.8,293.6c0,0-8.9,26.5-29.2,17.3C417.6,310.9,421.9,292.1,446.8,293.6z"/>
			<path class="st29" d="M427.1,305.9c0,0,4.4-4.2,19.7-12.3"/>
		</g>
		<g>
			<path class="st29" d="M412,279c0,0,22.1,27.2-4.1,36.8c0,0-5.1-10.3,1.3-26.9C410.7,283.8,411.9,282.5,412,279z"/>
			<path class="st29" d="M413.5,305.2c0,0,4.3-10.2-1.6-26.1"/>
		</g>
		<g>
			<path class="st29" d="M434.4,312.4c0,0-14.3,24.7-32.9,12C401.5,324.3,409.6,306.5,434.4,312.4z"/>
			<path class="st29" d="M413.1,319.4c0,0,4.2-2.3,21.3-7"/>
		</g>
		<g>
			<path class="st29" d="M404.3,295.2c0,0,17.8,29.9-10.9,34.7c0,0-3.4-10.8,6.2-25.7C402.1,299.6,403.5,298.5,404.3,295.2z"/>
			<path class="st29" d="M401.2,314.2c0,0,3.4-2.5,3.1-19"/>
		</g>
		<path class="st29" d="M394.3,303.9c0,0,12.7,19.2-5.6,30.9c0,0-9.7-5.5,2.6-25.4C393.7,305.9,394.3,303.9,394.3,303.9z"/>
		<g>
			<path class="st29" d="M422.6,328.5c0,0-19.2,18.8-32.5,7.4c0,0,7.9-12.2,24.3-9.4C419.1,327.5,419.6,328.3,422.6,328.5z"/>
			<path class="st29" d="M400,335.3c0,0,13.9-6.8,22.6-6.8"/>
		</g>
		<g>
			<path class="st29" d="M354.3,85.3c0,0,22.9,5.9,24.2,21.9c0,0-15.6,3.4-21.7-13.8C355.9,90.6,355.6,88.1,354.3,85.3z"/>
			<path class="st29" d="M368.7,101.1c0,0-7.5-11.5-14.4-15.8"/>
		</g>
	</g>
</g>
</svg>
