<svg id="Layer_1" data-name="Layer 1" xmlns="http://www.w3.org/2000/svg" viewBox="0 0 135.05 129.76">
  <defs>
    <style>.cls-1{fill:#20458c;}.cls-2{fill:#56d6f1;}.cls-3{fill:#0697f2;}</style>
  </defs>
  <path class="cls-1"
    d="M117.81,49.42c-3.22,0-6.45,0-9.67,0a2.15,2.15,0,0,0-1.32.55c-1.78,1.69-3.5,3.44-5.33,5.26h0v0l0,0,0,0v0h0C99.6,53.43,97.88,51.68,96.1,50a2.17,2.17,0,0,0-1.32-.55c-3.23,0-6.45,0-9.68,0H83.62V80.13h9.29V59.86l8.52,8.56v0h0l0,0,0,0h0v0L110,59.86V80.13h9.29V49.42Z" />
  <path class="cls-1"
    d="M76.25,62.54a15.7,15.7,0,0,0-4.76-.82c-4.68-.11-9.36,0-14,0a8.69,8.69,0,0,1-1.53-.11,1.83,1.83,0,0,1-1.78-2.09c0-1.19.57-1.76,1.84-1.95a8.88,8.88,0,0,1,1.36-.09c5.65,0,11.3,0,17,0a1.41,1.41,0,0,0,1.19-.66c1.42-2.22,2.87-4.43,4.31-6.65.12-.19.22-.41.39-.73H59.08a37.8,37.8,0,0,0-3.84.14c-4.91.49-8.76,2.92-8.94,9.07-.14,4.59,2.09,7.78,6.34,8.79a14.67,14.67,0,0,0,3.3.39c3.43,0,6.85,0,10.28,0,1.6,0,3.19,0,4.79,0a2.16,2.16,0,0,1,0,4.31c-.45,0-.91,0-1.37,0-6.16,0-12.32,0-18.48,0l0,.06,3.23,6.85a1.76,1.76,0,0,0,1.61,1H70a19.37,19.37,0,0,0,3.48-.35c3.59-.69,6.2-2.59,7.08-6.3a15.38,15.38,0,0,0,.39-4.06C80.79,66.21,79.44,63.64,76.25,62.54Z" />
  <path class="cls-1"
    d="M34.67,72.1H33.4a1.71,1.71,0,0,0-1.55,1L30,77.14l-1.37,2.94h23l-2.19-4.47C45.77,68.07,42.09,60.52,38.36,53c-2.4-4.83-6.31-4.85-8.73-.07Q23,66,16.5,79c-.17.33-.31.67-.52,1.13,2.69,0,5.17,0,7.65,0a1.29,1.29,0,0,0,.82-.53l3.85-7.4,5.58-10.93L39.35,72.1H34.67Z" />
  <path class="cls-2"
    d="M73.39,18.86A46.55,46.55,0,0,0,31,45.91h.5a41.94,41.94,0,0,1,73.6-1.65,3.2,3.2,0,0,0,2.78,1.65h8A46.56,46.56,0,0,0,73.39,18.86Z" />
  <path class="cls-2"
    d="M68.73,106.27A41.83,41.83,0,0,1,31.48,83.6H31a46.78,46.78,0,0,0,84.83,0h-8a3.22,3.22,0,0,0-2.78,1.65A41.83,41.83,0,0,1,68.73,106.27Z" />
  <path class="cls-3"
    d="M73.2,15.27a49.67,49.67,0,0,1,46,30.64h0a54.94,54.94,0,0,0-103.2,0h9.08A3.2,3.2,0,0,0,28,44,49.69,49.69,0,0,1,73.2,15.27Z" />
  <path class="cls-3"
    d="M73.2,113.74a49.71,49.71,0,0,1-45-28.28,3.21,3.21,0,0,0-2.88-1.86H16a54.94,54.94,0,0,0,103.21,0H119A49.66,49.66,0,0,1,73.2,113.74Z" />
</svg>
